<?xml version="1.0" encoding="UTF-8" standalone="no"?> <svg xmlns="http://www.w3.org/2000/svg" viewBox="0 0 32 32"><defs><style>.cls-1{fill:#307e45;}.cls-2{fill:#4fb15c;}.cls-3{fill:#9adc8e;}.cls-4{fill:#ff6153;}.cls-5{fill:#f45356;}.cls-6{fill:#d24d54;}.cls-7{fill:#ff938c;}.cls-8{fill:#fffeca;}.cls-9{fill:#ff7b56;}.cls-10{fill:#511d21;}.cls-11{fill:#ffa97d;}.cls-12{fill:#a23a41;}.cls-13{fill:#fff;}.cls-14{fill:#ffd59b;}</style></defs><title>strawberry astonished</title><g id="strawberry_astonished" data-name="strawberry astonished"><path class="cls-1" d="M21.86,4.49a1,1,0,0,0-1.37-.35L17.54,5.91a3.65,3.65,0,0,1-.54.23V3a1,1,0,0,0-2,0V6.14a3.65,3.65,0,0,1-.54-.23l-3-1.77a1,1,0,0,0-1,1.72l2.94,1.76a4.95,4.95,0,0,0,5.14,0l2.94-1.76A1,1,0,0,0,21.86,4.49Z"/><path class="cls-2" d="M18.06,7.77a1,1,0,0,1-.86-.49,1,1,0,0,1,.34-1.37l2.95-1.77a1,1,0,0,1,1,1.72L18.57,7.62A1,1,0,0,1,18.06,7.77Z"/><path class="cls-2" d="M13.94,7.77a1,1,0,0,1-.51-.15L10.49,5.86a1,1,0,0,1,1-1.72l3,1.77a1,1,0,0,1,.34,1.37A1,1,0,0,1,13.94,7.77Z"/><path class="cls-3" d="M20.33,6.4a1,1,0,0,1-.51-1.86l.67-.4a1,1,0,0,1,1,1.72l-.66.4A1.07,1.07,0,0,1,20.33,6.4Z"/><path class="cls-3" d="M11.63,6.38a1.06,1.06,0,0,1-.51-.14l-.63-.38a1,1,0,0,1,1-1.72l.64.38a1,1,0,0,1,.34,1.37A1,1,0,0,1,11.63,6.38Z"/><path class="cls-4" d="M27,17a1.89,1.89,0,0,1-.11.25c-.65,1.36-1.3,2.61-1.93,3.75-3.33,6-6.35,9-9,9-1.53,0-3.17-1-4.94-3a30.51,30.51,0,0,1-2.87-4c-.39-.62-.78-1.29-1.17-2-.64-1.14-1.29-2.39-1.94-3.75A2.72,2.72,0,0,1,5,17a6.94,6.94,0,0,1-.55-2,7.08,7.08,0,0,1,.75-4A7,7,0,0,1,6.86,8.88a5,5,0,0,1,5.2-.71L14,9a5.07,5.07,0,0,0,4,0l1.92-.85a5,5,0,0,1,5.2.71A7,7,0,0,1,27,17Z"/><path class="cls-5" d="M18,13a2,2,0,0,1-2,2H4.42a7.08,7.08,0,0,1,.75-4H16A2,2,0,0,1,18,13Z"/><path class="cls-5" d="M22,19a2,2,0,0,1-2,2H7c-.64-1.14-1.29-2.39-1.94-3.75A2.72,2.72,0,0,1,5,17H20A2,2,0,0,1,22,19Z"/><path class="cls-5" d="M19,25a2,2,0,0,1-2,2H11.06a30.51,30.51,0,0,1-2.87-4H17A2,2,0,0,1,19,25Z"/><circle class="cls-5" cx="21.5" cy="13.5" r="0.5"/><circle class="cls-5" cx="22.5" cy="10.5" r="0.5"/><circle class="cls-5" cx="9.5" cy="10.5" r="0.5"/><circle class="cls-5" cx="19.5" cy="11.5" r="0.5"/><circle class="cls-5" cx="24.5" cy="13.5" r="0.5"/><circle class="cls-5" cx="23.5" cy="20.5" r="0.5"/><circle class="cls-5" cx="20.5" cy="23.5" r="0.5"/><circle class="cls-5" cx="23.5" cy="16.5" r="0.5"/><circle class="cls-6" cx="15.5" cy="12.5" r="0.5"/><circle class="cls-6" cx="9.5" cy="19.5" r="0.5"/><circle class="cls-6" cx="7.5" cy="13.5" r="0.5"/><circle class="cls-6" cx="14.5" cy="18.5" r="0.5"/><circle class="cls-6" cx="19.5" cy="18.5" r="0.5"/><circle class="cls-6" cx="12.5" cy="23.5" r="0.5"/><circle class="cls-6" cx="17.5" cy="25.5" r="0.5"/><ellipse class="cls-7" cx="10" cy="18" rx="2" ry="1"/><ellipse class="cls-7" cx="22" cy="18" rx="2" ry="1"/><path class="cls-8" d="M12,18a2.1,2.1,0,0,1-1.4-.56,2.2,2.2,0,0,1-.44-.67A1.93,1.93,0,0,1,10,16a2.1,2.1,0,0,1,.56-1.4A2.06,2.06,0,0,1,12,14a1.9,1.9,0,0,1,.41,0l.35.11a1.58,1.58,0,0,1,.42.24l.15.11.05.05.06,0A2.1,2.1,0,0,1,14,16a1.85,1.85,0,0,1-.16.76,1.83,1.83,0,0,1-.39.62l0,.06-.07,0-.23.17a1.41,1.41,0,0,1-.34.19,2.91,2.91,0,0,1-.39.12Z"/><path class="cls-8" d="M20,18a2.14,2.14,0,0,1-1.38-.55l-.07-.07a2,2,0,0,1-.39-.61A1.93,1.93,0,0,1,18,16a1.85,1.85,0,0,1,.16-.76,1.91,1.91,0,0,1,.39-.62,2.09,2.09,0,0,1,.68-.46A1.92,1.92,0,0,1,20,14a2,2,0,0,1,1.42.57,2.17,2.17,0,0,1,.42.65A1.72,1.72,0,0,1,22,16a1.78,1.78,0,0,1-.19.83,1.9,1.9,0,0,1-.36.55A2.1,2.1,0,0,1,20,18Z"/><path class="cls-6" d="M16,30c-3.15,0-6.83-4.29-10.92-12.75A7,7,0,0,1,6.86,8.88a1,1,0,1,1,1.29,1.53,5,5,0,0,0-1.27,6C12,26.87,15,28,16,28a1,1,0,0,1,0,2Z"/><path class="cls-9" d="M26,17.81a1,1,0,0,1-.43-.1,1,1,0,0,1-.47-1.33,5,5,0,0,0-1.27-6,3,3,0,0,0-3.1-.41l-1.93.85a1,1,0,0,1-1.32-.51A1,1,0,0,1,18,9l1.92-.85a5,5,0,0,1,5.2.71,7,7,0,0,1,1.78,8.37A1,1,0,0,1,26,17.81Z"/><circle class="cls-10" cx="20" cy="16" r="1"/><circle class="cls-10" cx="12" cy="16" r="1"/><path class="cls-11" d="M24.49,10.64a1,1,0,0,1-.64-.23,3,3,0,0,0-3.1-.41,1,1,0,1,1-.81-1.83,5,5,0,0,1,5.2.71,1,1,0,0,1-.65,1.76Z"/><path class="cls-11" d="M26.42,13.7a1,1,0,0,1-1-.74c0-.16-.09-.32-.14-.47a1,1,0,0,1,.59-1.28,1,1,0,0,1,1.28.59c.08.21.15.42.21.64a1,1,0,0,1-.71,1.23Z"/><path class="cls-12" d="M6.47,18.81a1,1,0,0,1-.89-.55l-.5-1a1,1,0,0,1,1.8-.88l.48,1a1,1,0,0,1-.44,1.35A1,1,0,0,1,6.47,18.81Z"/><path class="cls-12" d="M10.87,26.18a1,1,0,0,1-.8-.4A40.63,40.63,0,0,1,7,21a1,1,0,0,1,1.75-1,39.11,39.11,0,0,0,2.9,4.57,1,1,0,0,1-.19,1.4A1,1,0,0,1,10.87,26.18Z"/><path class="cls-10" d="M16,25a2,2,0,0,1-2-2V22a2,2,0,0,1,4,0v1A2,2,0,0,1,16,25Z"/><path class="cls-13" d="M16,20a2,2,0,0,0-2,2h4A2,2,0,0,0,16,20Z"/><path class="cls-5" d="M16,23a2,2,0,0,0-2,2h4A2,2,0,0,0,16,23Z"/><path class="cls-14" d="M16,26a3,3,0,0,1-3-3V22a3,3,0,0,1,6,0v1A3,3,0,0,1,16,26Zm0-5a1,1,0,0,0-1,1v1a1,1,0,0,0,2,0V22A1,1,0,0,0,16,21Z"/><path class="cls-11" d="M23,13a.47.47,0,0,1-.35-.15l-.12-.12A2.51,2.51,0,0,0,20.76,12H20a.5.5,0,0,1,0-1h.76a3.44,3.44,0,0,1,2.47,1l.12.12a.48.48,0,0,1,0,.7A.47.47,0,0,1,23,13Z"/><path class="cls-11" d="M9,13a.47.47,0,0,0,.35-.15l.12-.12A2.51,2.51,0,0,1,11.24,12H12a.5.5,0,0,0,0-1h-.76a3.44,3.44,0,0,0-2.47,1l-.12.12a.48.48,0,0,0,0,.7A.47.47,0,0,0,9,13Z"/></g></svg>